<svg xmlns:xlink="http://www.w3.org/1999/xlink" width="1024px" height="400px" xmlns="http://www.w3.org/2000/svg"><style type="text/css">
path { fill: none; stroke: rgb(51,51,51); }
path.series { stroke: #6b63ff; }
rect.background { fill: rgb(255,255,255); stroke: none; }

text {
	stroke-width: 0;
	stroke: none;
	fill: rgba(51,51,51,1.0);
	font-size: 12.8px;
	font-family: 'Roboto Medium', sans-serif;
}
</style><rect width="1024px" height="400px" class="background" rx="8" x="0" y="0" /><rect class="background" rx="8" x="0" y="0" width="1024px" height="400px"></rect><path stroke-width="2" class="series" d="M 58 345 L 59 345 L 60 344 L 60 344 L 62 344 L 62 343 L 62 343 L 63 343 L 64 342 L 69 342 L 71 341 L 72 341 L 74 341 L 75 340 L 75 340 L 77 340 L 78 339 L 79 339 L 81 338 L 81 338 L 82 338 L 82 337 L 83 337 L 83 337 L 84 336 L 92 336 L 94 335 L 95 335 L 95 335 L 96 334 L 98 334 L 99 334 L 99 333 L 100 333 L 100 333 L 100 332 L 100 332 L 102 331 L 102 331 L 106 331 L 107 330 L 107 330 L 108 330 L 109 329 L 110 329 L 115 328 L 115 328 L 115 328 L 115 327 L 118 327 L 119 327 L 123 326 L 125 326 L 130 325 L 131 325 L 131 325 L 131 324 L 133 324 L 133 324 L 134 323 L 135 323 L 136 323 L 138 322 L 140 322 L 142 321 L 143 321 L 144 321 L 144 320 L 149 320 L 153 320 L 154 319 L 154 319 L 155 318 L 158 318 L 158 318 L 160 317 L 161 317 L 166 317 L 169 316 L 170 316 L 171 315 L 172 315 L 174 315 L 174 314 L 176 314 L 179 314 L 180 313 L 186 313 L 187 313 L 194 312 L 194 312 L 194 311 L 195 311 L 196 311 L 196 310 L 197 310 L 199 310 L 199 309 L 200 309 L 203 308 L 203 308 L 203 308 L 204 307 L 204 307 L 204 307 L 205 306 L 205 306 L 205 305 L 205 305 L 205 305 L 206 304 L 206 304 L 206 304 L 206 303 L 206 303 L 206 302 L 206 302 L 206 302 L 207 301 L 207 301 L 207 301 L 207 300 L 207 300 L 207 300 L 207 299 L 207 299 L 207 298 L 208 298 L 208 298 L 209 297 L 209 297 L 210 297 L 211 296 L 211 296 L 212 295 L 213 295 L 215 295 L 215 294 L 215 294 L 216 294 L 216 293 L 217 293 L 217 292 L 217 292 L 218 292 L 219 291 L 219 291 L 219 291 L 219 290 L 220 290 L 220 290 L 221 289 L 224 289 L 224 288 L 225 288 L 226 288 L 227 287 L 227 287 L 228 287 L 228 286 L 228 286 L 229 285 L 230 285 L 232 285 L 232 284 L 232 284 L 234 284 L 234 283 L 235 283 L 236 282 L 236 282 L 237 282 L 237 281 L 237 281 L 238 281 L 238 280 L 239 280 L 240 280 L 240 279 L 241 279 L 241 278 L 242 278 L 242 278 L 242 277 L 242 277 L 242 277 L 242 276 L 243 276 L 244 275 L 245 275 L 245 275 L 246 274 L 249 274 L 250 274 L 250 273 L 251 273 L 251 272 L 251 272 L 252 272 L 252 271 L 253 271 L 253 271 L 253 270 L 254 270 L 255 269 L 255 269 L 256 269 L 256 268 L 256 268 L 257 268 L 260 267 L 260 267 L 261 267 L 261 266 L 261 266 L 261 265 L 262 265 L 262 265 L 262 264 L 263 264 L 265 264 L 265 263 L 266 263 L 266 262 L 266 262 L 267 262 L 267 261 L 267 261 L 269 261 L 269 260 L 269 260 L 270 259 L 270 259 L 271 259 L 272 258 L 273 258 L 273 258 L 274 257 L 274 257 L 274 257 L 275 256 L 275 256 L 276 255 L 277 255 L 277 255 L 279 254 L 279 254 L 279 254 L 279 253 L 279 253 L 282 252 L 282 252 L 282 252 L 283 251 L 285 251 L 286 251 L 286 250 L 286 250 L 287 249 L 287 249 L 288 249 L 289 248 L 289 248 L 290 248 L 291 247 L 292 247 L 293 247 L 293 246 L 293 246 L 295 245 L 297 245 L 298 245 L 301 244 L 304 244 L 305 244 L 307 243 L 307 243 L 308 242 L 308 242 L 309 242 L 309 241 L 310 241 L 310 241 L 313 240 L 313 240 L 315 239 L 315 239 L 318 239 L 318 238 L 319 238 L 320 238 L 321 237 L 322 237 L 322 236 L 323 236 L 325 236 L 326 235 L 327 235 L 328 235 L 328 234 L 328 234 L 330 234 L 331 233 L 331 233 L 331 232 L 332 232 L 334 232 L 335 231 L 335 231 L 335 231 L 335 230 L 337 230 L 337 229 L 338 229 L 338 229 L 339 228 L 339 228 L 339 228 L 340 227 L 340 227 L 341 226 L 342 226 L 344 226 L 344 225 L 345 225 L 345 225 L 346 224 L 346 224 L 346 224 L 350 223 L 350 223 L 352 222 L 352 222 L 353 222 L 353 221 L 355 221 L 355 221 L 356 220 L 356 220 L 357 219 L 357 219 L 362 219 L 362 218 L 362 218 L 362 218 L 363 217 L 363 217 L 364 216 L 364 216 L 365 216 L 367 215 L 369 215 L 369 215 L 371 214 L 372 214 L 372 214 L 372 213 L 374 213 L 375 212 L 377 212 L 378 212 L 378 211 L 380 211 L 381 211 L 381 210 L 381 210 L 383 209 L 384 209 L 388 209 L 390 208 L 390 208 L 391 208 L 392 207 L 393 207 L 394 206 L 395 206 L 395 206 L 396 205 L 397 205 L 399 205 L 402 204 L 403 204 L 406 203 L 408 203 L 410 203 L 410 202 L 412 202 L 412 202 L 412 201 L 413 201 L 415 201 L 416 200 L 418 200 L 418 199 L 418 199 L 419 199 L 419 198 L 420 198 L 421 198 L 422 197 L 423 197 L 423 196 L 424 196 L 425 196 L 429 195 L 430 195 L 431 195 L 432 194 L 433 194 L 434 193 L 434 193 L 436 193 L 438 192 L 441 192 L 441 192 L 442 191 L 443 191 L 443 191 L 444 190 L 445 190 L 446 189 L 446 189 L 446 189 L 447 188 L 448 188 L 449 188 L 450 187 L 453 187 L 454 186 L 454 186 L 455 186 L 455 185 L 458 185 L 461 185 L 463 184 L 464 184 L 465 183 L 465 183 L 466 183 L 468 182 L 470 182 L 471 182 L 474 181 L 476 181 L 478 181 L 482 180 L 484 180 L 485 179 L 485 179 L 486 179 L 487 178 L 488 178 L 488 178 L 490 177 L 491 177 L 492 176 L 495 176 L 497 176 L 500 175 L 504 175 L 506 175 L 512 174 L 513 174 L 513 173 L 515 173 L 516 173 L 516 172 L 517 172 L 517 172 L 518 171 L 518 171 L 523 170 L 523 170 L 523 170 L 524 169 L 524 169 L 525 169 L 525 168 L 528 168 L 528 168 L 529 167 L 529 167 L 529 166 L 529 166 L 530 166 L 536 165 L 536 165 L 536 165 L 536 164 L 536 164 L 540 163 L 541 163 L 543 163 L 543 162 L 544 162 L 546 162 L 546 161 L 546 161 L 546 160 L 547 160 L 548 160 L 549 159 L 549 159 L 549 159 L 549 158 L 550 158 L 550 158 L 551 157 L 551 157 L 552 156 L 552 156 L 555 156 L 555 155 L 555 155 L 556 155 L 556 154 L 559 154 L 559 153 L 559 153 L 560 153 L 560 152 L 560 152 L 564 152 L 565 151 L 565 151 L 565 150 L 565 150 L 566 150 L 568 149 L 569 149 L 570 149 L 570 148 L 570 148 L 573 148 L 574 147 L 574 147 L 574 146 L 576 146 L 578 146 L 578 145 L 578 145 L 579 145 L 579 144 L 579 144 L 580 143 L 584 143 L 584 143 L 585 142 L 588 142 L 589 142 L 589 141 L 590 141 L 591 140 L 592 140 L 594 140 L 595 139 L 595 139 L 595 139 L 595 138 L 596 138 L 596 137 L 599 137 L 599 137 L 600 136 L 602 136 L 602 136 L 608 135 L 608 135 L 608 135 L 608 134 L 608 134 L 609 133 L 609 133 L 609 133 L 611 132 L 611 132 L 611 132 L 613 131 L 615 131 L 619 130 L 621 130 L 622 130 L 622 129 L 623 129 L 625 129 L 625 128 L 625 128 L 625 127 L 627 127 L 627 127 L 627 126 L 628 126 L 629 126 L 629 125 L 631 125 L 632 125 L 632 124 L 635 124 L 635 123 L 635 123 L 636 123 L 637 122 L 638 122 L 643 122 L 644 121 L 645 121 L 646 120 L 648 120 L 650 120 L 650 119 L 652 119 L 654 119 L 656 118 L 656 118 L 656 117 L 661 117 L 661 117 L 661 116 L 662 116 L 663 116 L 664 115 L 664 115 L 665 115 L 668 114 L 669 114 L 669 113 L 671 113 L 671 113 L 671 112 L 675 112 L 675 112 L 675 111 L 675 111 L 676 110 L 678 110 L 679 110 L 679 109 L 680 109 L 683 109 L 683 108 L 685 108 L 686 107 L 686 107 L 687 107 L 689 106 L 690 106 L 690 106 L 693 105 L 695 105 L 695 104 L 696 104 L 697 104 L 698 103 L 702 103 L 703 103 L 703 102 L 704 102 L 705 102 L 705 101 L 706 101 L 707 100 L 709 100 L 710 100 L 711 99 L 711 99 L 711 99 L 713 98 L 713 98 L 715 97 L 716 97 L 716 97 L 717 96 L 717 96 L 718 96 L 718 95 L 723 95 L 723 94 L 723 94 L 723 94 L 724 93 L 724 93 L 725 93 L 726 92 L 727 92 L 727 92 L 729 91 L 729 91 L 730 90 L 730 90 L 731 90 L 731 89 L 731 89 L 731 89 L 731 88 L 732 88 L 732 87 L 734 87 L 735 87 L 735 86 L 737 86 L 737 86 L 737 85 L 738 85 L 738 84 L 738 84 L 739 84 L 739 83 L 740 83 L 741 83 L 742 82 L 742 82 L 743 82 L 744 81 L 748 81 L 750 80 L 750 80 L 750 80 L 751 79 L 753 79 L 754 79 L 754 78 L 755 78 L 756 77 L 756 77 L 757 77 L 758 76 L 758 76 L 759 76 L 760 75 L 761 75 L 761 74 L 762 74 L 762 74 L 763 73 L 764 73 L 764 73 L 770 72 L 771 72 L 774 71 L 774 71 L 776 71 L 777 70 L 777 70 L 778 70 L 780 69 L 780 69 L 781 69 L 782 68 L 782 68 L 783 67 L 783 67 L 783 67 L 784 66 L 784 66 L 787 66 L 789 65 L 789 65 L 792 64 L 792 64 L 792 64 L 795 63 L 799 63 L 801 63 L 801 62 L 801 62 L 801 61 L 803 61 L 806 61 L 806 60 L 813 60 L 813 60 L 813 59 L 814 59 L 816 59 L 818 58 L 818 58 L 824 57 L 824 57 L 825 57 L 825 56 L 825 56 L 826 56 L 828 55 L 830 55 L 830 54 L 832 54 L 833 54 L 835 53 L 836 53 L 836 53 L 839 52 L 840 52 L 841 51 L 844 51 L 845 51 L 849 50 L 849 50 L 851 50 L 851 49 L 853 49 L 853 49 L 853 48 L 854 48 L 856 47 L 858 47 L 859 47 L 859 46 L 859 46 L 864 46 L 865 45 L 865 45 L 866 44 L 868 44 L 869 44 L 869 43 L 871 43 L 873 43 L 873 42 L 880 42 L 880 41 L 880 41 L 883 41 L 885 40 L 886 40 L 886 40 L 890 39 L 890 39 L 891 38 L 891 38 L 893 38 L 893 37 L 893 37 L 894 37 L 895 36 L 895 36 L 896 36 L 896 35 L 899 35 L 899 34 L 900 34 L 901 34 L 901 33 L 902 33 L 906 33 L 909 32 L 911 32 L 912 31 L 912 31 L 912 31 L 913 30 L 914 30 L 915 30 L 915 29 L 916 29 L 917 28 L 917 28 L 918 28 L 918 27 L 920 27 L 922 27 L 924 26 L 924 26 L 925 26 L 925 25 L 925 25 L 925 24 L 926 24 L 926 24 L 927 23 L 930 23 L 930 23 L 932 22 L 933 22 L 934 21 L 935 21 L 936 21 L 936 20 L 936 20 L 940 20 L 941 19 L 943 19 L 944 18 L 945 18" /><path stroke-width="2" class="series" d="M 58 345 L 59 345 L 60 344 L 60 344 L 62 344 L 62 343 L 62 343 L 63 343 L 64 342 L 69 342 L 71 341 L 72 341 L 74 341 L 75 340 L 75 340 L 77 340 L 78 339 L 79 339 L 81 338 L 81 338 L 82 338 L 82 337 L 83 337 L 83 337 L 84 336 L 92 336 L 94 335 L 95 335 L 95 335 L 96 334 L 98 334 L 99 334 L 99 333 L 100 333 L 100 333 L 100 332 L 100 332 L 102 331 L 102 331 L 106 331 L 107 330 L 107 330 L 108 330 L 109 329 L 110 329 L 115 328 L 115 328 L 115 328 L 115 327 L 118 327 L 119 327 L 123 326 L 125 326 L 130 325 L 131 325 L 131 325 L 131 324 L 133 324 L 133 324 L 134 323 L 135 323 L 136 323 L 138 322 L 140 322 L 142 321 L 143 321 L 144 321 L 144 320 L 149 320 L 153 320 L 154 319 L 154 319 L 155 318 L 158 318 L 158 318 L 160 317 L 161 317 L 166 317 L 169 316 L 170 316 L 171 315 L 172 315 L 174 315 L 174 314 L 176 314 L 179 314 L 180 313 L 186 313 L 187 313 L 194 312 L 194 312 L 194 311 L 195 311 L 196 311 L 196 310 L 197 310 L 199 310 L 199 309 L 200 309 L 203 308 L 203 308 L 203 308 L 204 307 L 204 307 L 204 307 L 205 306 L 205 306 L 205 305 L 205 305 L 205 305 L 206 304 L 206 304 L 206 304 L 206 303 L 206 303 L 206 302 L 206 302 L 206 302 L 207 301 L 207 301 L 207 301 L 207 300 L 207 300 L 207 300 L 207 299 L 207 299 L 207 298 L 208 298 L 208 298 L 209 297 L 209 297 L 210 297 L 211 296 L 211 296 L 212 295 L 213 295 L 215 295 L 215 294 L 215 294 L 216 294 L 216 293 L 217 293 L 217 292 L 217 292 L 218 292 L 219 291 L 219 291 L 219 291 L 219 290 L 220 290 L 220 290 L 221 289 L 224 289 L 224 288 L 225 288 L 226 288 L 227 287 L 227 287 L 228 287 L 228 286 L 228 286 L 229 285 L 230 285 L 232 285 L 232 284 L 232 284 L 234 284 L 234 283 L 235 283 L 236 282 L 236 282 L 237 282 L 237 281 L 237 281 L 238 281 L 238 280 L 239 280 L 240 280 L 240 279 L 241 279 L 241 278 L 242 278 L 242 278 L 242 277 L 242 277 L 242 277 L 242 276 L 243 276 L 244 275 L 245 275 L 245 275 L 246 274 L 249 274 L 250 274 L 250 273 L 251 273 L 251 272 L 251 272 L 252 272 L 252 271 L 253 271 L 253 271 L 253 270 L 254 270 L 255 269 L 255 269 L 256 269 L 256 268 L 256 268 L 257 268 L 260 267 L 260 267 L 261 267 L 261 266 L 261 266 L 261 265 L 262 265 L 262 265 L 262 264 L 263 264 L 265 264 L 265 263 L 266 263 L 266 262 L 266 262 L 267 262 L 267 261 L 267 261 L 269 261 L 269 260 L 269 260 L 270 259 L 270 259 L 271 259 L 272 258 L 273 258 L 273 258 L 274 257 L 274 257 L 274 257 L 275 256 L 275 256 L 276 255 L 277 255 L 277 255 L 279 254 L 279 254 L 279 254 L 279 253 L 279 253 L 282 252 L 282 252 L 282 252 L 283 251 L 285 251 L 286 251 L 286 250 L 286 250 L 287 249 L 287 249 L 288 249 L 289 248 L 289 248 L 290 248 L 291 247 L 292 247 L 293 247 L 293 246 L 293 246 L 295 245 L 297 245 L 298 245 L 301 244 L 304 244 L 305 244 L 307 243 L 307 243 L 308 242 L 308 242 L 309 242 L 309 241 L 310 241 L 310 241 L 313 240 L 313 240 L 315 239 L 315 239 L 318 239 L 318 238 L 319 238 L 320 238 L 321 237 L 322 237 L 322 236 L 323 236 L 325 236 L 326 235 L 327 235 L 328 235 L 328 234 L 328 234 L 330 234 L 331 233 L 331 233 L 331 232 L 332 232 L 334 232 L 335 231 L 335 231 L 335 231 L 335 230 L 337 230 L 337 229 L 338 229 L 338 229 L 339 228 L 339 228 L 339 228 L 340 227 L 340 227 L 341 226 L 342 226 L 344 226 L 344 225 L 345 225 L 345 225 L 346 224 L 346 224 L 346 224 L 350 223 L 350 223 L 352 222 L 352 222 L 353 222 L 353 221 L 355 221 L 355 221 L 356 220 L 356 220 L 357 219 L 357 219 L 362 219 L 362 218 L 362 218 L 362 218 L 363 217 L 363 217 L 364 216 L 364 216 L 365 216 L 367 215 L 369 215 L 369 215 L 371 214 L 372 214 L 372 214 L 372 213 L 374 213 L 375 212 L 377 212 L 378 212 L 378 211 L 380 211 L 381 211 L 381 210 L 381 210 L 383 209 L 384 209 L 388 209 L 390 208 L 390 208 L 391 208 L 392 207 L 393 207 L 394 206 L 395 206 L 395 206 L 396 205 L 397 205 L 399 205 L 402 204 L 403 204 L 406 203 L 408 203 L 410 203 L 410 202 L 412 202 L 412 202 L 412 201 L 413 201 L 415 201 L 416 200 L 418 200 L 418 199 L 418 199 L 419 199 L 419 198 L 420 198 L 421 198 L 422 197 L 423 197 L 423 196 L 424 196 L 425 196 L 429 195 L 430 195 L 431 195 L 432 194 L 433 194 L 434 193 L 434 193 L 436 193 L 438 192 L 441 192 L 441 192 L 442 191 L 443 191 L 443 191 L 444 190 L 445 190 L 446 189 L 446 189 L 446 189 L 447 188 L 448 188 L 449 188 L 450 187 L 453 187 L 454 186 L 454 186 L 455 186 L 455 185 L 458 185 L 461 185 L 463 184 L 464 184 L 465 183 L 465 183 L 466 183 L 468 182 L 470 182 L 471 182 L 474 181 L 476 181 L 478 181 L 482 180 L 484 180 L 485 179 L 485 179 L 486 179 L 487 178 L 488 178 L 488 178 L 490 177 L 491 177 L 492 176 L 495 176 L 497 176 L 500 175 L 504 175 L 506 175 L 512 174 L 513 174 L 513 173 L 515 173 L 516 173 L 516 172 L 517 172 L 517 172 L 518 171 L 518 171 L 523 170 L 523 170 L 523 170 L 524 169 L 524 169 L 525 169 L 525 168 L 528 168 L 528 168 L 529 167 L 529 167 L 529 166 L 529 166 L 530 166 L 536 165 L 536 165 L 536 165 L 536 164 L 536 164 L 540 163 L 541 163 L 543 163 L 543 162 L 544 162 L 546 162 L 546 161 L 546 161 L 546 160 L 547 160 L 548 160 L 549 159 L 549 159 L 549 159 L 549 158 L 550 158 L 550 158 L 551 157 L 551 157 L 552 156 L 552 156 L 555 156 L 555 155 L 555 155 L 556 155 L 556 154 L 559 154 L 559 153 L 559 153 L 560 153 L 560 152 L 560 152 L 564 152 L 565 151 L 565 151 L 565 150 L 565 150 L 566 150 L 568 149 L 569 149 L 570 149 L 570 148 L 570 148 L 573 148 L 574 147 L 574 147 L 574 146 L 576 146 L 578 146 L 578 145 L 578 145 L 579 145 L 579 144 L 579 144 L 580 143 L 584 143 L 584 143 L 585 142 L 588 142 L 589 142 L 589 141 L 590 141 L 591 140 L 592 140 L 594 140 L 595 139 L 595 139 L 595 139 L 595 138 L 596 138 L 596 137 L 599 137 L 599 137 L 600 136 L 602 136 L 602 136 L 608 135 L 608 135 L 608 135 L 608 134 L 608 134 L 609 133 L 609 133 L 609 133 L 611 132 L 611 132 L 611 132 L 613 131 L 615 131 L 619 130 L 621 130 L 622 130 L 622 129 L 623 129 L 625 129 L 625 128 L 625 128 L 625 127 L 627 127 L 627 127 L 627 126 L 628 126 L 629 126 L 629 125 L 631 125 L 632 125 L 632 124 L 635 124 L 635 123 L 635 123 L 636 123 L 637 122 L 638 122 L 643 122 L 644 121 L 645 121 L 646 120 L 648 120 L 650 120 L 650 119 L 652 119 L 654 119 L 656 118 L 656 118 L 656 117 L 661 117 L 661 117 L 661 116 L 662 116 L 663 116 L 664 115 L 664 115 L 665 115 L 668 114 L 669 114 L 669 113 L 671 113 L 671 113 L 671 112 L 675 112 L 675 112 L 675 111 L 675 111 L 676 110 L 678 110 L 679 110 L 679 109 L 680 109 L 683 109 L 683 108 L 685 108 L 686 107 L 686 107 L 687 107 L 689 106 L 690 106 L 690 106 L 693 105 L 695 105 L 695 104 L 696 104 L 697 104 L 698 103 L 702 103 L 703 103 L 703 102 L 704 102 L 705 102 L 705 101 L 706 101 L 707 100 L 709 100 L 710 100 L 711 99 L 711 99 L 711 99 L 713 98 L 713 98 L 715 97 L 716 97 L 716 97 L 717 96 L 717 96 L 718 96 L 718 95 L 723 95 L 723 94 L 723 94 L 723 94 L 724 93 L 724 93 L 725 93 L 726 92 L 727 92 L 727 92 L 729 91 L 729 91 L 730 90 L 730 90 L 731 90 L 731 89 L 731 89 L 731 89 L 731 88 L 732 88 L 732 87 L 734 87 L 735 87 L 735 86 L 737 86 L 737 86 L 737 85 L 738 85 L 738 84 L 738 84 L 739 84 L 739 83 L 740 83 L 741 83 L 742 82 L 742 82 L 743 82 L 744 81 L 748 81 L 750 80 L 750 80 L 750 80 L 751 79 L 753 79 L 754 79 L 754 78 L 755 78 L 756 77 L 756 77 L 757 77 L 758 76 L 758 76 L 759 76 L 760 75 L 761 75 L 761 74 L 762 74 L 762 74 L 763 73 L 764 73 L 764 73 L 770 72 L 771 72 L 774 71 L 774 71 L 776 71 L 777 70 L 777 70 L 778 70 L 780 69 L 780 69 L 781 69 L 782 68 L 782 68 L 783 67 L 783 67 L 783 67 L 784 66 L 784 66 L 787 66 L 789 65 L 789 65 L 792 64 L 792 64 L 792 64 L 795 63 L 799 63 L 801 63 L 801 62 L 801 62 L 801 61 L 803 61 L 806 61 L 806 60 L 813 60 L 813 60 L 813 59 L 814 59 L 816 59 L 818 58 L 818 58 L 824 57 L 824 57 L 825 57 L 825 56 L 825 56 L 826 56 L 828 55 L 830 55 L 830 54 L 832 54 L 833 54 L 835 53 L 836 53 L 836 53 L 839 52 L 840 52 L 841 51 L 844 51 L 845 51 L 849 50 L 849 50 L 851 50 L 851 49 L 853 49 L 853 49 L 853 48 L 854 48 L 856 47 L 858 47 L 859 47 L 859 46 L 859 46 L 864 46 L 865 45 L 865 45 L 866 44 L 868 44 L 869 44 L 869 43 L 871 43 L 873 43 L 873 42 L 880 42 L 880 41 L 880 41 L 883 41 L 885 40 L 886 40 L 886 40 L 890 39 L 890 39 L 891 38 L 891 38 L 893 38 L 893 37 L 893 37 L 894 37 L 895 36 L 895 36 L 896 36 L 896 35 L 899 35 L 899 34 L 900 34 L 901 34 L 901 33 L 902 33 L 906 33 L 909 32 L 911 32 L 912 31 L 912 31 L 912 31 L 913 30 L 914 30 L 915 30 L 915 29 L 916 29 L 917 28 L 917 28 L 918 28 L 918 27 L 920 27 L 922 27 L 924 26 L 924 26 L 925 26 L 925 25 L 925 25 L 925 24 L 926 24 L 926 24 L 927 23 L 930 23 L 930 23 L 932 22 L 933 22 L 934 21 L 935 21 L 936 21 L 936 20 L 936 20 L 940 20 L 941 19 L 943 19 L 944 18 L 945 18"></path><path stroke-width="2" d="M 945 346 L 945.000000 15.000000" /><path stroke-width="2" d="M 945 346 L 945.000000 15.000000"></path><path stroke-width="2" d="M 945 346 L 950 346" /><path stroke-width="2" d="M 945 346 L 950 346"></path><text xmlns="http://www.w3.org/2000/svg" x="955" y="352">0</text><path stroke-width="2" d="M 945 309 L 950 309" /><path stroke-width="2" d="M 945 309 L 950 309"></path><text xmlns="http://www.w3.org/2000/svg" x="955" y="315">99</text><path stroke-width="2" d="M 945 272 L 950 272" /><path d="M 945 272 L 950 272" stroke-width="2"></path><text xmlns="http://www.w3.org/2000/svg" x="955" y="278">198</text><path stroke-width="2" d="M 945 235 L 950 235" /><path d="M 945 235 L 950 235" stroke-width="2"></path><text y="241" xmlns="http://www.w3.org/2000/svg" x="955">297</text><path d="M 945 199 L 950 199" stroke-width="2" /><path stroke-width="2" d="M 945 199 L 950 199"></path><text xmlns="http://www.w3.org/2000/svg" x="955" y="205">396</text><path stroke-width="2" d="M 945 162 L 950 162" /><path stroke-width="2" d="M 945 162 L 950 162"></path><text xmlns="http://www.w3.org/2000/svg" x="955" y="168">495</text><path stroke-width="2" d="M 945 125 L 950 125" /><path stroke-width="2" d="M 945 125 L 950 125"></path><text xmlns="http://www.w3.org/2000/svg" x="955" y="131">594</text><path d="M 945 89 L 950 89" stroke-width="2" /><path stroke-width="2" d="M 945 89 L 950 89"></path><text xmlns="http://www.w3.org/2000/svg" x="955" y="95">693</text><path stroke-width="2" d="M 945 52 L 950 52" /><path d="M 945 52 L 950 52" stroke-width="2"></path><text xmlns="http://www.w3.org/2000/svg" x="955" y="58">792</text><path stroke-width="2" d="M 945 16 L 950 16" /><path stroke-width="2" d="M 945 16 L 950 16"></path><text xmlns="http://www.w3.org/2000/svg" x="955" y="22">890</text><text xmlns="http://www.w3.org/2000/svg" x="987" y="175" transform="rotate(90.00,987,175)">Stargazers</text><path stroke-width="2" d="M 57.000000 346.000000 L 945 346" /><path stroke-width="2" d="M 57.000000 346.000000 L 945 346"></path><path stroke-width="2" d="M 58 346 L 58 351" /><path stroke-width="2" d="M 58 346 L 58 351"></path><text x="25" y="368" xmlns="http://www.w3.org/2000/svg">2022-09-12</text><path stroke-width="2" d="M 157 346 L 157 351" /><path stroke-width="2" d="M 157 346 L 157 351"></path><text xmlns="http://www.w3.org/2000/svg" x="124" y="368">2023-01-06</text><path stroke-width="2" d="M 256 346 L 256 351" /><path stroke-width="2" d="M 256 346 L 256 351"></path><text x="223" y="368" xmlns="http://www.w3.org/2000/svg">2023-05-02</text><path stroke-width="2" d="M 354 346 L 354 351" /><path stroke-width="2" d="M 354 346 L 354 351"></path><text xmlns="http://www.w3.org/2000/svg" x="321" y="368">2023-08-25</text><path stroke-width="2" d="M 453 346 L 453 351" /><path stroke-width="2" d="M 453 346 L 453 351"></path><text xmlns="http://www.w3.org/2000/svg" x="420" y="368">2023-12-19</text><path stroke-width="2" d="M 551 346 L 551 351" /><path stroke-width="2" d="M 551 346 L 551 351"></path><text xmlns="http://www.w3.org/2000/svg" x="518" y="368">2024-04-13</text><path stroke-width="2" d="M 650 346 L 650 351" /><path stroke-width="2" d="M 650 346 L 650 351"></path><text xmlns="http://www.w3.org/2000/svg" x="617" y="368">2024-08-07</text><path stroke-width="2" d="M 748 346 L 748 351" /><path stroke-width="2" d="M 748 346 L 748 351"></path><text xmlns="http://www.w3.org/2000/svg" x="715" y="368">2024-11-30</text><path stroke-width="2" d="M 847 346 L 847 351" /><path stroke-width="2" d="M 847 346 L 847 351"></path><text xmlns="http://www.w3.org/2000/svg" x="814" y="368">2025-03-26</text><path stroke-width="2" d="M 945 346 L 945 351" /><path stroke-width="2" d="M 945 346 L 945 351"></path><text xmlns="http://www.w3.org/2000/svg" x="912" y="368">2025-07-20</text><text x="487" y="390" xmlns="http://www.w3.org/2000/svg">Time</text></svg>